<?xml version="1.0" encoding="UTF-8" standalone="no"?>
<svg
   viewBox="0 0 594.5005 439.8583"
   version="1.1"
   id="svg12"
   sodipodi:docname="nuka-cola-seeklogo-rojo.svg"
   inkscape:version="1.2.1 (9c6d41e410, 2022-07-14)"
   xmlns:inkscape="http://www.inkscape.org/namespaces/inkscape"
   xmlns:sodipodi="http://sodipodi.sourceforge.net/DTD/sodipodi-0.dtd"
   xmlns="http://www.w3.org/2000/svg"
   xmlns:svg="http://www.w3.org/2000/svg"
   xmlns:rdf="http://www.w3.org/1999/02/22-rdf-syntax-ns#"
   xmlns:cc="http://creativecommons.org/ns#"
   xmlns:dc="http://purl.org/dc/elements/1.1/">
  <sodipodi:namedview
     id="namedview14"
     pagecolor="#ffffff"
     bordercolor="#000000"
     borderopacity="0.25"
     inkscape:showpageshadow="2"
     inkscape:pageopacity="0.0"
     inkscape:pagecheckerboard="0"
     inkscape:deskcolor="#d1d1d1"
     showgrid="false"
     inkscape:zoom="0.53653642"
     inkscape:cx="231.11199"
     inkscape:cy="219.92915"
     inkscape:window-width="1280"
     inkscape:window-height="961"
     inkscape:window-x="-8"
     inkscape:window-y="-8"
     inkscape:window-maximized="1"
     inkscape:current-layer="svg12" />
  <defs
     id="defs4">
    <style
       id="style2">.cls-1{fill:#d82227;}</style>
  </defs>
  <title
     id="title6">Ресурс 1</title>
  <g
     id="Слой_2"
     data-name="Слой 2"
     transform="translate(-1.8638064)"
     style="fill:#641a17;fill-opacity:1">
    <g
       id="Слой_1-2"
       data-name="Слой 1"
       style="fill:#641a17;fill-opacity:1">
      <path
         class="cls-1"
         d="m 583.1688,216.9759 c -19.6948,19.6948 -64.16,50.5129 -161.239,50.5129 -94.7496,0 -158.1285,-24.3591 -224.502,-24.3591 -55.7017,0 -104.0642,13.4515 -144.2881,42.7485 -8.2223,5.8648 -15.3202,15.2993 -15.3202,25.515 0,10.2157 5.2563,13.2 9.1044,12.9039 l 0.4585,3.1438 c 0,0 -11.3804,9.4185 -23.916,9.4185 C 10.9308,336.8594 0,328.9101 0,310.8297 c 0,-18.1456 7.6475,-35.5302 58.306,-71.1644 20.8152,-13.854 73.4622,-44.008 150.6819,-44.6905 50.0293,0 104.5934,14.2697 139.0173,18.2778 29.5561,3.5183 163.8348,23.8733 228.434,-32.0487 10.8549,-9.3516 18.0613,-4.1297 18.0613,7.7665 0,12.3394 -7.3038,23.9776 -11.3317,28.0055 z M 468.3461,195.0203 c -10.9716,0 -11.2365,-10.5467 -11.2365,-12.1512 0,-1.6045 1.4372,-11.1302 7.5525,-21.5921 0.8909,-1.6957 -0.6404,-1.9294 -2.1986,-0.4721 -1.3803,1.2027 -32.0185,23.4271 -39.378,23.4271 -7.0635,0 -17.0857,-17.0772 -17.9299,-21.8608 -0.7287,-1.0867 -1.145,-0.7009 -2.3292,0.3677 -2.1144,1.7198 -23.3285,19.7436 -37.9385,19.7436 -14.61,0 -25.6318,-19.3443 -31.4746,-28.782 -13.2364,11.4916 -10.7066,19.1946 -18.248,19.1946 -7.5414,0 -8.6557,-17.0341 -9.2748,-21.925 -0.3591,-1.9161 -0.8003,-1.6033 -2.1578,-0.0726 -1.3575,1.5307 -25.7506,25.0593 -40.4298,25.0593 -11.6093,0 -12.9489,-11.6651 -12.9489,-14.3999 0,-2.7348 1.9145,-11.4569 3.898,-15.6545 0.8765,-2.1219 -0.1383,-2.168 -1.4761,-0.7842 -10.0798,9.1895 -21.9624,24.2493 -32.5157,24.2493 -11.6677,0 -15.5703,-14.0126 -15.5703,-20.7729 0,0 -1.4668,-17.3649 16.2864,-38.4126 12.9591,-14.3064 16.1801,-13.7072 25.5436,-13.7072 9.3635,0 8.9333,2.2465 8.9333,3.8223 0,1.5758 0.1884,3.5461 -7.7422,11.0673 -2.212,2.0251 -6.0375,7.1631 -11.0516,11.3075 -11.3075,8.3398 -16.0992,10.9415 -17.056,20.7338 -0.6753,5.684 1.0468,8.026 15.4655,-1.1031 13.9504,-8.0919 53.055,-47.9626 62.4484,-49.281 3.4608,-0.3296 5.0264,6.5097 4.7792,11.7834 -0.2472,5.2737 -2.6368,6.9217 -6.9215,10.9593 -4.3411,3.7 -21.689,19.7243 -23.4706,32.3944 -0.324,3.5943 3.8,13.7931 35.2935,-10.6885 15.3424,-41.9318 80.8421,-92.154 95.5802,-92.154 a 5.53722,5.53722 0 0 1 5.7305,5.6809 c 0,13.6309 -65.7704,67.8107 -87.9513,89.8634 -0.1642,2.7773 -0.1556,2.8444 -0.2509,4.687 0,1.1437 1.5885,0.0953 2.6051,-0.8895 1.5164,-1.3257 49.2628,-40.2967 66.6973,-40.2967 10.0442,0 11.8412,12.1016 11.8412,16.3412 0,3.514 -0.5616,11.0901 -10.8212,18.1859 -10.075,6.8652 -31.0196,14.9018 -31.7576,15.5475 1.3206,1.8658 5.9883,11.1996 15.2978,11.1996 9.3095,0 28.6904,-13.8762 31.3242,-15.7673 5.3605,-17.5407 43.438,-36.6173 72.2708,-36.6173 16.6376,0 18.0161,11.0768 18.0161,11.4962 0,2.9356 -5.0548,3.8815 -6.7109,3.8815 -0.9964,0 -0.1743,1.1043 0.41,1.5168 a 9.40018,9.40018 0 0 1 4.911,8.2373 c 0,7.1849 -18.3285,19.6062 -18.3285,29.4093 0,5.0598 5.4341,6.2768 8.2473,6.2768 2.8132,0 8.4719,-0.1409 28.298,-13.0009 1.3396,7.3677 1.2441,6.7245 1.4145,7.7187 -2.646,3.2183 -32.1185,26.2337 -45.6754,26.2337 z m -92.1482,-60.5411 c 5.9075,-3.6181 6.7936,-5.6856 7.1629,-7.7531 0.3693,-2.0675 -2.2154,-2.7321 -3.8399,-2.7321 -1.6245,0 -16.615,2.2891 -34.2639,18.5337 0,0 6.8676,3.1751 8.4183,5.6117 2.8799,-1.9198 16.615,-10.0421 22.5226,-13.6602 z m 95.9073,-1.0014 c -2.0812,0.5476 -52.5938,7.4258 -52.5938,29.092 0,0.6377 -0.6134,6.7277 5.0569,6.7277 6.0246,0 19.2603,-7.3295 50.405,-34.8979 2.0476,-1.968 -0.7869,-1.4695 -2.8681,-0.9218 z M 235.5268,49.7572 c -21.3501,30.0407 -25.115,38.306 -31.3134,49.87 -24.8005,44.8242 -38.7301,61.9006 -52.5887,78.4586 -4.7583,0.7675 -22.8685,4.706 -24.9462,5.0927 0.8158,-2.6285 5.7012,-14.1704 10.4371,-37.7797 2.7417,-25.3315 10.6747,-64.6547 11.4422,-70.0351 -6.5987,9.0362 -32.4423,53.6981 -37.6996,63.0337 -47.58,77.4208 -78.0394,78.1978 -85.0349,78.1978 -6.9955,0 -8.9715,-3.752 -8.9715,-12.7848 0,-35.1757 50.2147,-122.1112 71.5595,-122.1112 7.1164,0 8.2793,5.907 8.2793,8.9303 0,3.0233 -1.0233,8.0001 -5.8141,15.6281 -4.7908,7.628 -12.0725,19.0027 -14.9376,23.2209 -2.8651,4.2182 -5.5214,8.3603 -7.4474,8.3603 -1.926,0 -1.3814,-3.5177 -1.3814,-3.5177 0.1102,-0.8941 -0.873,-1.0738 -1.5109,-0.2163 -3.717,5.2065 -31.7827,56.573 -20.1345,56.4884 12.1083,0 50.442,-45.1194 76.7094,-89.4449 11.7447,-23.8027 30.8003,-54.0346 42.9073,-72.5373 5.2641,-0.9869 15.4634,-2.9608 27.8561,-4.2767 -4.7158,9.5404 -13.5991,53.2947 -15.5731,67.5505 -1.974,14.2558 -6.0821,38.0525 -7.8125,45.963 3.4608,-2.6368 12.0977,-16.9547 21.2364,-34.6318 9.2212,-17.9242 14.0596,-25.6017 40.7393,-67.7907 C 247.4875,10.0295 260.4773,0 270.7152,0 c 7.7156,0 10.5621,2.0973 10.5621,6.8911 0,4.7938 -3.0518,8.592 -9.4737,16.838 -22.4522,-1.3415 -30.421,17.1268 -36.2768,26.0281 z m -11.4353,223.6381 c 21.9804,0 22.8197,17.3837 22.8197,21.9462 0,28.9695 -55.2691,79.9168 -79.4189,79.9168 a 10.89984,10.89984 0 0 1 -11.1242,-11.0547 c 0,-4.9293 3.3334,-9.614 7.8279,-13.434 4.4945,-3.82 16.255,-12.9582 20.3001,-16.4037 4.0451,-3.4455 6.0675,-5.0185 7.7904,-5.0185 a 2.085,2.085 0 0 1 2.3971,2.322 c 0,1.4232 -1.3484,4.644 1.9476,1.9475 3.296,-2.6965 32.3036,-28.4996 32.3036,-40.8225 0,-2.8002 -1.3285,-5.015 -4.5702,-5.015 -3.2417,0 -24.4251,1.5962 -57.4381,32.8955 -24.7995,21.931 -44.6656,47.3636 -44.6656,74.0351 0,22.5776 17.3991,25.9203 26.7156,25.9203 9.604,0 41.4783,-6.9988 88.168,-45.2061 0.0933,7.1444 0.7506,8.6882 -5.9787,15.8742 -7.0533,7.024 -53.025,48.5599 -94.8653,48.5599 -17.3574,0 -44.859,-10.5223 -44.859,-43.5986 0,-60.1618 98.2143,-122.8644 132.65,-122.8644 z m 75.6733,68.5024 c 13.5115,0 12.5957,10.5913 7.8528,11.698 -2.0432,0.4195 -1.4479,1.5992 -0.4172,1.9428 1.0307,0.3436 6.3236,0.6895 6.3236,11.3806 0,10.1566 -4.989,18.7095 -8.0775,24.7084 -0.6788,1.2688 1.2772,1.1177 2.2143,1.1177 0.9371,0 6.3384,1.1987 19.4049,-12.0464 6.5646,-27.6713 16.1515,-41.1717 20.0588,-46.2281 12.6963,-16.4602 39.0382,-48.9771 47.18,-48.9771 2.9689,0 3.6193,3.8883 3.6193,5.8956 0,30.5012 -25.1211,59.3585 -52.5875,88.5063 -3.7697,4.0098 -3.7338,23.6648 8.6666,23.6648 8.4084,0 23.4418,-11.2951 30.6612,-18.5987 9.6841,-28.8752 68.5617,-59.2279 80.3735,-59.2279 7.7679,0 9.7538,4.7311 9.7538,6.6834 0,1.9523 -0.1877,3.4728 -6.3283,6.9269 -1.5352,1.8304 5.373,-0.4133 5.373,7.4986 0,7.8343 -18.1315,25.2828 -18.1315,35.446 0,3.5501 2.4363,4.6639 4.803,4.6639 2.3667,0 8.1159,0.6391 31.5139,-23.9496 1.5327,6.4747 1.1788,4.7546 1.611,6.9158 -2.0787,3.463 -35.7841,43.3576 -49.7369,43.3576 -4.2881,0 -7.3098,-3.6983 -7.3098,-9.6354 0,-5.9371 6.282,-21.7464 7.4556,-23.8866 1.1736,-2.1402 -1.1042,-1.1166 -1.8057,-0.2593 -0.7015,0.8573 -18.0547,17.542 -21.0785,20.7369 -3.0238,3.1949 -15.4044,14.2059 -19.9115,14.2059 -4.5071,0 -13.5216,-8.0443 -16.6025,-17.9142 -0.3529,-1.0242 -0.746,-1.2855 -1.8372,4e-4 -1.0912,1.2859 -21.8299,25.3034 -39.8396,25.3034 -18.0097,0 -16.9071,-23.6137 -16.9071,-26.9215 0,-1.9788 -1.4632,-0.5734 -1.7633,-0.1447 -0.3001,0.4287 -9.1583,11.9429 -28.602,11.9429 -8.174,7.4413 -17.6657,15.5793 -31.9634,15.5793 -16.4544,0 -22.5807,-20.1774 -22.5807,-31.6002 0,-33.2999 44.2513,-48.7855 58.6149,-48.7855 z m 51.9851,17.0153 a 144.58475,144.58475 0 0 0 27.0819,-39.1357 c 1.2663,-2.9215 3.2452,-7.4303 2.3428,-7.5534 0,0 -6.0663,1.4946 -19.0781,22.6825 -3.1233,4.6849 -6.0663,10.7259 -11.8689,23.298 -0.8704,2.2237 0.8443,1.4173 1.5223,0.7086 z m 54.9652,38.7928 c 6.1571,-4.1197 6.1399,-2.4387 25.4814,-22.8047 18.958,-20.3113 22.055,-25.5 22.055,-25.5 0,0 0.7903,-1.7372 -1.4177,-0.5956 -2.4141,1.2226 -10.9411,5.3657 -18.7477,10.0265 -7.6256,4.525 -35.4581,19.1824 -35.4581,35.2317 0,2.9658 1.93,7.7618 8.0871,3.6421 z m -140.7208,9.5455 c 6.9883,0 15.8904,-7.0598 15.8904,-9.0448 -7.1616,-11.6191 5.1561,-29.9832 5.9121,-31.4349 0.9622,-1.3279 0.4054,-1.8706 -0.0815,-1.6764 a 140.54671,140.54671 0 0 0 -21.1801,13.3877 c -5.5376,4.1969 -10.1357,14.1383 -10.1357,19.8383 0,9.7851 9.5948,8.9301 9.5948,8.9301 z"
         id="path8"
         style="fill:#641a17;fill-opacity:1" />
    </g>
  </g>
  <metadata
     id="metadata2672">
    <rdf:RDF>
      <cc:Work
         rdf:about="">
        <dc:title>Ресурс 1</dc:title>
      </cc:Work>
    </rdf:RDF>
  </metadata>
</svg>
